<mxfile host="app.diagrams.net" modified="2024-07-04T10:39:20.004Z" agent="Mozilla/5.0 (Windows NT 10.0; Win64; x64) AppleWebKit/537.36 (KHTML, like Gecko) Chrome/126.0.0.0 Safari/537.36" etag="neTpFT_MglhDNkT1Rj9a" version="24.6.4" type="github">
  <diagram id="8qBJmzlZQiSokgc8NCbG" name="Page-1">
    <mxGraphModel dx="1970" dy="434" grid="1" gridSize="10" guides="1" tooltips="1" connect="1" arrows="1" fold="1" page="1" pageScale="1" pageWidth="850" pageHeight="1100" math="0" shadow="0">
      <root>
        <mxCell id="0" />
        <mxCell id="1" parent="0" />
        <mxCell id="QMCbMUR7JRhNykuZOvW2-59" style="edgeStyle=orthogonalEdgeStyle;rounded=0;orthogonalLoop=1;jettySize=auto;html=1;exitX=0.5;exitY=0;exitDx=0;exitDy=0;entryX=0.25;entryY=0;entryDx=0;entryDy=0;" parent="1" source="QMCbMUR7JRhNykuZOvW2-67" target="QMCbMUR7JRhNykuZOvW2-74" edge="1">
          <mxGeometry relative="1" as="geometry">
            <Array as="points">
              <mxPoint x="420" y="410" />
              <mxPoint x="420" y="390" />
              <mxPoint x="195" y="390" />
            </Array>
          </mxGeometry>
        </mxCell>
        <mxCell id="QMCbMUR7JRhNykuZOvW2-60" value="Reply" style="edgeLabel;html=1;align=center;verticalAlign=middle;resizable=0;points=[];" parent="QMCbMUR7JRhNykuZOvW2-59" vertex="1" connectable="0">
          <mxGeometry x="0.0627" y="-2" relative="1" as="geometry">
            <mxPoint as="offset" />
          </mxGeometry>
        </mxCell>
        <mxCell id="QMCbMUR7JRhNykuZOvW2-61" style="edgeStyle=orthogonalEdgeStyle;rounded=0;orthogonalLoop=1;jettySize=auto;html=1;exitX=0.5;exitY=0;exitDx=0;exitDy=0;entryX=0.67;entryY=0;entryDx=0;entryDy=0;entryPerimeter=0;" parent="1" source="QMCbMUR7JRhNykuZOvW2-67" target="QMCbMUR7JRhNykuZOvW2-103" edge="1">
          <mxGeometry relative="1" as="geometry">
            <Array as="points">
              <mxPoint x="500" y="410" />
              <mxPoint x="500" y="390" />
              <mxPoint x="707" y="390" />
            </Array>
          </mxGeometry>
        </mxCell>
        <mxCell id="QMCbMUR7JRhNykuZOvW2-62" value="Checks for credentials for authorixation and email to be verified&amp;nbsp;" style="edgeLabel;html=1;align=center;verticalAlign=middle;resizable=0;points=[];" parent="QMCbMUR7JRhNykuZOvW2-61" vertex="1" connectable="0">
          <mxGeometry x="-0.1076" y="-1" relative="1" as="geometry">
            <mxPoint x="103" as="offset" />
          </mxGeometry>
        </mxCell>
        <mxCell id="QMCbMUR7JRhNykuZOvW2-63" style="edgeStyle=orthogonalEdgeStyle;rounded=0;orthogonalLoop=1;jettySize=auto;html=1;exitX=0.41;exitY=0.033;exitDx=0;exitDy=0;exitPerimeter=0;" parent="1" source="QMCbMUR7JRhNykuZOvW2-67" target="QMCbMUR7JRhNykuZOvW2-134" edge="1">
          <mxGeometry relative="1" as="geometry">
            <mxPoint x="70" y="693" as="targetPoint" />
            <Array as="points">
              <mxPoint x="450" y="410" />
              <mxPoint x="450" y="280" />
              <mxPoint x="-40" y="280" />
              <mxPoint x="-40" y="730" />
            </Array>
          </mxGeometry>
        </mxCell>
        <mxCell id="QMCbMUR7JRhNykuZOvW2-64" value="Response" style="edgeLabel;html=1;align=center;verticalAlign=middle;resizable=0;points=[];" parent="QMCbMUR7JRhNykuZOvW2-63" vertex="1" connectable="0">
          <mxGeometry x="-0.4783" y="-1" relative="1" as="geometry">
            <mxPoint as="offset" />
          </mxGeometry>
        </mxCell>
        <mxCell id="QMCbMUR7JRhNykuZOvW2-65" style="edgeStyle=orthogonalEdgeStyle;rounded=0;orthogonalLoop=1;jettySize=auto;html=1;exitX=0.5;exitY=0;exitDx=0;exitDy=0;entryX=0;entryY=0.25;entryDx=0;entryDy=0;" parent="1" source="QMCbMUR7JRhNykuZOvW2-67" target="QMCbMUR7JRhNykuZOvW2-134" edge="1">
          <mxGeometry relative="1" as="geometry">
            <mxPoint x="20" y="745" as="targetPoint" />
            <Array as="points">
              <mxPoint x="470" y="250" />
              <mxPoint x="-60" y="250" />
              <mxPoint x="-60" y="745" />
            </Array>
          </mxGeometry>
        </mxCell>
        <mxCell id="QMCbMUR7JRhNykuZOvW2-66" value="Response" style="edgeLabel;html=1;align=center;verticalAlign=middle;resizable=0;points=[];" parent="QMCbMUR7JRhNykuZOvW2-65" vertex="1" connectable="0">
          <mxGeometry x="-0.207" y="-3" relative="1" as="geometry">
            <mxPoint as="offset" />
          </mxGeometry>
        </mxCell>
        <mxCell id="QMCbMUR7JRhNykuZOvW2-67" value="&amp;nbsp;&amp;nbsp;&amp;nbsp;&amp;nbsp;&amp;nbsp;&amp;nbsp;&amp;nbsp;&amp;nbsp; ApplicationUser" style="html=1;dashed=0;whitespace=wrap;shape=mxgraph.dfd.dataStoreID;align=left;spacingLeft=3;points=[[0,0],[0.5,0],[1,0],[0,0.5],[1,0.5],[0,1],[0.5,1],[1,1]];" parent="1" vertex="1">
          <mxGeometry x="410" y="410" width="120" height="30" as="geometry" />
        </mxCell>
        <mxCell id="QMCbMUR7JRhNykuZOvW2-68" style="edgeStyle=orthogonalEdgeStyle;rounded=0;orthogonalLoop=1;jettySize=auto;html=1;exitX=0.5;exitY=1;exitDx=0;exitDy=0;entryX=-0.017;entryY=0.383;entryDx=0;entryDy=0;entryPerimeter=0;" parent="1" source="QMCbMUR7JRhNykuZOvW2-74" target="QMCbMUR7JRhNykuZOvW2-93" edge="1">
          <mxGeometry relative="1" as="geometry">
            <Array as="points">
              <mxPoint x="220" y="573" />
            </Array>
          </mxGeometry>
        </mxCell>
        <mxCell id="QMCbMUR7JRhNykuZOvW2-69" value="Email Verifucation link in email" style="edgeLabel;html=1;align=center;verticalAlign=middle;resizable=0;points=[];" parent="QMCbMUR7JRhNykuZOvW2-68" vertex="1" connectable="0">
          <mxGeometry x="0.125" y="1" relative="1" as="geometry">
            <mxPoint as="offset" />
          </mxGeometry>
        </mxCell>
        <mxCell id="QMCbMUR7JRhNykuZOvW2-70" style="edgeStyle=orthogonalEdgeStyle;rounded=0;orthogonalLoop=1;jettySize=auto;html=1;exitX=0.5;exitY=0;exitDx=0;exitDy=0;entryX=-0.03;entryY=0.3;entryDx=0;entryDy=0;entryPerimeter=0;" parent="1" source="QMCbMUR7JRhNykuZOvW2-74" target="QMCbMUR7JRhNykuZOvW2-67" edge="1">
          <mxGeometry relative="1" as="geometry" />
        </mxCell>
        <mxCell id="QMCbMUR7JRhNykuZOvW2-71" value="Check for Registry" style="edgeLabel;html=1;align=center;verticalAlign=middle;resizable=0;points=[];" parent="QMCbMUR7JRhNykuZOvW2-70" vertex="1" connectable="0">
          <mxGeometry relative="1" as="geometry">
            <mxPoint as="offset" />
          </mxGeometry>
        </mxCell>
        <mxCell id="QMCbMUR7JRhNykuZOvW2-72" style="edgeStyle=orthogonalEdgeStyle;rounded=0;orthogonalLoop=1;jettySize=auto;html=1;entryX=0.075;entryY=1.1;entryDx=0;entryDy=0;entryPerimeter=0;" parent="1" source="QMCbMUR7JRhNykuZOvW2-74" target="QMCbMUR7JRhNykuZOvW2-164" edge="1">
          <mxGeometry relative="1" as="geometry" />
        </mxCell>
        <mxCell id="QMCbMUR7JRhNykuZOvW2-73" value="User Role Register" style="edgeLabel;html=1;align=center;verticalAlign=middle;resizable=0;points=[];" parent="QMCbMUR7JRhNykuZOvW2-72" vertex="1" connectable="0">
          <mxGeometry x="-0.2632" y="3" relative="1" as="geometry">
            <mxPoint x="14" y="-3" as="offset" />
          </mxGeometry>
        </mxCell>
        <mxCell id="QMCbMUR7JRhNykuZOvW2-74" value="Register" style="rounded=1;whiteSpace=wrap;html=1;" parent="1" vertex="1">
          <mxGeometry x="170" y="440" width="100" height="100" as="geometry" />
        </mxCell>
        <mxCell id="QMCbMUR7JRhNykuZOvW2-75" value="" style="endArrow=none;html=1;exitX=0;exitY=0.25;exitDx=0;exitDy=0;entryX=1;entryY=0.25;entryDx=0;entryDy=0;" parent="1" source="QMCbMUR7JRhNykuZOvW2-74" target="QMCbMUR7JRhNykuZOvW2-74" edge="1">
          <mxGeometry width="50" height="50" relative="1" as="geometry">
            <mxPoint x="410" y="520" as="sourcePoint" />
            <mxPoint x="290" y="470" as="targetPoint" />
          </mxGeometry>
        </mxCell>
        <mxCell id="QMCbMUR7JRhNykuZOvW2-76" style="edgeStyle=orthogonalEdgeStyle;rounded=0;orthogonalLoop=1;jettySize=auto;html=1;exitX=0.5;exitY=1;exitDx=0;exitDy=0;" parent="1" source="QMCbMUR7JRhNykuZOvW2-74" target="QMCbMUR7JRhNykuZOvW2-74" edge="1">
          <mxGeometry relative="1" as="geometry" />
        </mxCell>
        <mxCell id="QMCbMUR7JRhNykuZOvW2-77" style="edgeStyle=orthogonalEdgeStyle;rounded=0;orthogonalLoop=1;jettySize=auto;html=1;entryX=0.67;entryY=1.03;entryDx=0;entryDy=0;entryPerimeter=0;" parent="1" target="QMCbMUR7JRhNykuZOvW2-74" edge="1">
          <mxGeometry relative="1" as="geometry">
            <mxPoint x="402" y="560" as="sourcePoint" />
            <Array as="points">
              <mxPoint x="402" y="560" />
              <mxPoint x="237" y="560" />
            </Array>
          </mxGeometry>
        </mxCell>
        <mxCell id="QMCbMUR7JRhNykuZOvW2-78" value="Request to Register" style="edgeLabel;html=1;align=center;verticalAlign=middle;resizable=0;points=[];" parent="QMCbMUR7JRhNykuZOvW2-77" vertex="1" connectable="0">
          <mxGeometry x="-0.0256" y="4" relative="1" as="geometry">
            <mxPoint x="13" y="-14" as="offset" />
          </mxGeometry>
        </mxCell>
        <mxCell id="QMCbMUR7JRhNykuZOvW2-79" style="edgeStyle=orthogonalEdgeStyle;rounded=0;orthogonalLoop=1;jettySize=auto;html=1;exitX=1;exitY=0.5;exitDx=0;exitDy=0;" parent="1" source="QMCbMUR7JRhNykuZOvW2-93" edge="1">
          <mxGeometry relative="1" as="geometry">
            <mxPoint x="680" y="540" as="targetPoint" />
          </mxGeometry>
        </mxCell>
        <mxCell id="QMCbMUR7JRhNykuZOvW2-80" value="Request for login" style="edgeLabel;html=1;align=center;verticalAlign=middle;resizable=0;points=[];" parent="QMCbMUR7JRhNykuZOvW2-79" vertex="1" connectable="0">
          <mxGeometry x="-0.3538" relative="1" as="geometry">
            <mxPoint y="-20" as="offset" />
          </mxGeometry>
        </mxCell>
        <mxCell id="QMCbMUR7JRhNykuZOvW2-81" style="edgeStyle=orthogonalEdgeStyle;rounded=0;orthogonalLoop=1;jettySize=auto;html=1;exitX=0.85;exitY=1.017;exitDx=0;exitDy=0;entryX=0;entryY=0.75;entryDx=0;entryDy=0;exitPerimeter=0;" parent="1" source="QMCbMUR7JRhNykuZOvW2-93" target="QMCbMUR7JRhNykuZOvW2-143" edge="1">
          <mxGeometry relative="1" as="geometry">
            <Array as="points">
              <mxPoint x="507" y="610" />
              <mxPoint x="510" y="610" />
              <mxPoint x="510" y="735" />
            </Array>
          </mxGeometry>
        </mxCell>
        <mxCell id="QMCbMUR7JRhNykuZOvW2-82" value="Search for particular&amp;nbsp; skill member" style="edgeLabel;html=1;align=center;verticalAlign=middle;resizable=0;points=[];" parent="QMCbMUR7JRhNykuZOvW2-81" vertex="1" connectable="0">
          <mxGeometry x="0.4437" y="1" relative="1" as="geometry">
            <mxPoint x="-8.48" y="1.75" as="offset" />
          </mxGeometry>
        </mxCell>
        <mxCell id="QMCbMUR7JRhNykuZOvW2-89" style="edgeStyle=orthogonalEdgeStyle;rounded=0;orthogonalLoop=1;jettySize=auto;html=1;exitX=0;exitY=0.75;exitDx=0;exitDy=0;" parent="1" source="QMCbMUR7JRhNykuZOvW2-93" edge="1">
          <mxGeometry relative="1" as="geometry">
            <Array as="points">
              <mxPoint x="405" y="580" />
              <mxPoint x="50" y="580" />
              <mxPoint x="50" y="719" />
            </Array>
            <mxPoint x="50" y="719" as="targetPoint" />
          </mxGeometry>
        </mxCell>
        <mxCell id="QMCbMUR7JRhNykuZOvW2-90" value="View Worker Profile" style="edgeLabel;html=1;align=center;verticalAlign=middle;resizable=0;points=[];" parent="QMCbMUR7JRhNykuZOvW2-89" vertex="1" connectable="0">
          <mxGeometry x="0.0372" y="1" relative="1" as="geometry">
            <mxPoint x="-33" y="-1" as="offset" />
          </mxGeometry>
        </mxCell>
        <mxCell id="QMCbMUR7JRhNykuZOvW2-91" style="edgeStyle=orthogonalEdgeStyle;rounded=0;orthogonalLoop=1;jettySize=auto;html=1;exitX=0;exitY=0.75;exitDx=0;exitDy=0;" parent="1" source="QMCbMUR7JRhNykuZOvW2-93" edge="1">
          <mxGeometry relative="1" as="geometry">
            <Array as="points">
              <mxPoint x="405" y="600" />
              <mxPoint x="70" y="600" />
              <mxPoint x="70" y="718" />
            </Array>
            <mxPoint x="70" y="718" as="targetPoint" />
          </mxGeometry>
        </mxCell>
        <mxCell id="QMCbMUR7JRhNykuZOvW2-92" value="Deletes the profile" style="edgeLabel;html=1;align=center;verticalAlign=middle;resizable=0;points=[];" parent="QMCbMUR7JRhNykuZOvW2-91" vertex="1" connectable="0">
          <mxGeometry x="0.1288" y="1" relative="1" as="geometry">
            <mxPoint as="offset" />
          </mxGeometry>
        </mxCell>
        <mxCell id="QMCbMUR7JRhNykuZOvW2-179" style="edgeStyle=orthogonalEdgeStyle;rounded=0;orthogonalLoop=1;jettySize=auto;html=1;exitX=0.25;exitY=1;exitDx=0;exitDy=0;entryX=1;entryY=0.65;entryDx=0;entryDy=0;entryPerimeter=0;" parent="1" source="QMCbMUR7JRhNykuZOvW2-93" target="QMCbMUR7JRhNykuZOvW2-134" edge="1">
          <mxGeometry relative="1" as="geometry" />
        </mxCell>
        <mxCell id="QMCbMUR7JRhNykuZOvW2-180" value="View Star rated Worker Profile" style="edgeLabel;html=1;align=center;verticalAlign=middle;resizable=0;points=[];" parent="QMCbMUR7JRhNykuZOvW2-179" vertex="1" connectable="0">
          <mxGeometry x="0.7191" y="-2" relative="1" as="geometry">
            <mxPoint x="64" as="offset" />
          </mxGeometry>
        </mxCell>
        <mxCell id="QMCbMUR7JRhNykuZOvW2-181" style="edgeStyle=orthogonalEdgeStyle;rounded=0;orthogonalLoop=1;jettySize=auto;html=1;exitX=0.5;exitY=1;exitDx=0;exitDy=0;entryX=1;entryY=0.75;entryDx=0;entryDy=0;" parent="1" source="QMCbMUR7JRhNykuZOvW2-93" target="QMCbMUR7JRhNykuZOvW2-134" edge="1">
          <mxGeometry relative="1" as="geometry" />
        </mxCell>
        <mxCell id="QMCbMUR7JRhNykuZOvW2-182" value="Clicks on Hire Worker" style="edgeLabel;html=1;align=center;verticalAlign=middle;resizable=0;points=[];" parent="QMCbMUR7JRhNykuZOvW2-181" vertex="1" connectable="0">
          <mxGeometry x="0.4784" y="1" relative="1" as="geometry">
            <mxPoint as="offset" />
          </mxGeometry>
        </mxCell>
        <mxCell id="QMCbMUR7JRhNykuZOvW2-93" value="Hiring Manager" style="rounded=0;whiteSpace=wrap;html=1;" parent="1" vertex="1">
          <mxGeometry x="405" y="550" width="120" height="60" as="geometry" />
        </mxCell>
        <mxCell id="QMCbMUR7JRhNykuZOvW2-94" value="1.0" style="text;html=1;strokeColor=none;fillColor=none;align=center;verticalAlign=middle;whiteSpace=wrap;rounded=0;" parent="1" vertex="1">
          <mxGeometry x="200" y="450" width="40" height="20" as="geometry" />
        </mxCell>
        <mxCell id="QMCbMUR7JRhNykuZOvW2-95" value="" style="endArrow=none;html=1;exitX=0;exitY=0.25;exitDx=0;exitDy=0;entryX=1;entryY=0.25;entryDx=0;entryDy=0;" parent="1" edge="1">
          <mxGeometry width="50" height="50" relative="1" as="geometry">
            <mxPoint x="170" y="465" as="sourcePoint" />
            <mxPoint x="270" y="465" as="targetPoint" />
          </mxGeometry>
        </mxCell>
        <mxCell id="QMCbMUR7JRhNykuZOvW2-96" style="edgeStyle=orthogonalEdgeStyle;rounded=0;orthogonalLoop=1;jettySize=auto;html=1;exitX=0.5;exitY=1;exitDx=0;exitDy=0;" parent="1" edge="1">
          <mxGeometry relative="1" as="geometry">
            <mxPoint x="220" y="540" as="sourcePoint" />
            <mxPoint x="220" y="540" as="targetPoint" />
          </mxGeometry>
        </mxCell>
        <mxCell id="QMCbMUR7JRhNykuZOvW2-97" style="edgeStyle=orthogonalEdgeStyle;rounded=0;orthogonalLoop=1;jettySize=auto;html=1;exitX=0.5;exitY=1;exitDx=0;exitDy=0;" parent="1" edge="1">
          <mxGeometry relative="1" as="geometry">
            <mxPoint x="660" y="469" as="sourcePoint" />
            <mxPoint x="660" y="469" as="targetPoint" />
          </mxGeometry>
        </mxCell>
        <mxCell id="QMCbMUR7JRhNykuZOvW2-98" style="edgeStyle=orthogonalEdgeStyle;rounded=0;orthogonalLoop=1;jettySize=auto;html=1;exitX=0.5;exitY=1;exitDx=0;exitDy=0;" parent="1" edge="1">
          <mxGeometry relative="1" as="geometry">
            <mxPoint x="660" y="469" as="sourcePoint" />
            <mxPoint x="660" y="469" as="targetPoint" />
          </mxGeometry>
        </mxCell>
        <mxCell id="QMCbMUR7JRhNykuZOvW2-99" style="edgeStyle=orthogonalEdgeStyle;rounded=0;orthogonalLoop=1;jettySize=auto;html=1;exitX=0.61;exitY=1;exitDx=0;exitDy=0;entryX=1;entryY=0.75;entryDx=0;entryDy=0;exitPerimeter=0;" parent="1" source="QMCbMUR7JRhNykuZOvW2-103" target="QMCbMUR7JRhNykuZOvW2-93" edge="1">
          <mxGeometry relative="1" as="geometry">
            <Array as="points">
              <mxPoint x="700" y="539" />
              <mxPoint x="700" y="595" />
            </Array>
          </mxGeometry>
        </mxCell>
        <mxCell id="QMCbMUR7JRhNykuZOvW2-100" value="Response" style="edgeLabel;html=1;align=center;verticalAlign=middle;resizable=0;points=[];" parent="QMCbMUR7JRhNykuZOvW2-99" vertex="1" connectable="0">
          <mxGeometry x="-0.1466" y="1" relative="1" as="geometry">
            <mxPoint as="offset" />
          </mxGeometry>
        </mxCell>
        <mxCell id="QMCbMUR7JRhNykuZOvW2-101" style="edgeStyle=orthogonalEdgeStyle;rounded=0;orthogonalLoop=1;jettySize=auto;html=1;" parent="1" source="QMCbMUR7JRhNykuZOvW2-103" edge="1">
          <mxGeometry relative="1" as="geometry">
            <Array as="points">
              <mxPoint x="690" y="425" />
            </Array>
            <mxPoint x="530" y="425" as="targetPoint" />
          </mxGeometry>
        </mxCell>
        <mxCell id="QMCbMUR7JRhNykuZOvW2-102" value="Check for login" style="edgeLabel;html=1;align=center;verticalAlign=middle;resizable=0;points=[];" parent="QMCbMUR7JRhNykuZOvW2-101" vertex="1" connectable="0">
          <mxGeometry x="0.196" y="-2" relative="1" as="geometry">
            <mxPoint as="offset" />
          </mxGeometry>
        </mxCell>
        <mxCell id="QMCbMUR7JRhNykuZOvW2-191" style="edgeStyle=orthogonalEdgeStyle;rounded=0;orthogonalLoop=1;jettySize=auto;html=1;exitX=1;exitY=0.25;exitDx=0;exitDy=0;" parent="1" source="QMCbMUR7JRhNykuZOvW2-103" edge="1">
          <mxGeometry relative="1" as="geometry">
            <mxPoint x="890" y="464" as="targetPoint" />
          </mxGeometry>
        </mxCell>
        <mxCell id="QMCbMUR7JRhNykuZOvW2-193" value="Checks for User role" style="edgeLabel;html=1;align=center;verticalAlign=middle;resizable=0;points=[];" parent="QMCbMUR7JRhNykuZOvW2-191" vertex="1" connectable="0">
          <mxGeometry x="-0.2933" y="3" relative="1" as="geometry">
            <mxPoint x="17" y="-1" as="offset" />
          </mxGeometry>
        </mxCell>
        <mxCell id="QMCbMUR7JRhNykuZOvW2-103" value="Login" style="rounded=1;whiteSpace=wrap;html=1;" parent="1" vertex="1">
          <mxGeometry x="640" y="439" width="100" height="100" as="geometry" />
        </mxCell>
        <mxCell id="QMCbMUR7JRhNykuZOvW2-104" value="" style="endArrow=none;html=1;exitX=0;exitY=0.25;exitDx=0;exitDy=0;entryX=1;entryY=0.25;entryDx=0;entryDy=0;" parent="1" source="QMCbMUR7JRhNykuZOvW2-103" target="QMCbMUR7JRhNykuZOvW2-103" edge="1">
          <mxGeometry width="50" height="50" relative="1" as="geometry">
            <mxPoint x="880" y="459" as="sourcePoint" />
            <mxPoint x="760" y="409" as="targetPoint" />
          </mxGeometry>
        </mxCell>
        <mxCell id="QMCbMUR7JRhNykuZOvW2-105" style="edgeStyle=orthogonalEdgeStyle;rounded=0;orthogonalLoop=1;jettySize=auto;html=1;exitX=0.5;exitY=1;exitDx=0;exitDy=0;" parent="1" source="QMCbMUR7JRhNykuZOvW2-103" target="QMCbMUR7JRhNykuZOvW2-103" edge="1">
          <mxGeometry relative="1" as="geometry" />
        </mxCell>
        <mxCell id="QMCbMUR7JRhNykuZOvW2-106" style="edgeStyle=orthogonalEdgeStyle;rounded=0;orthogonalLoop=1;jettySize=auto;html=1;exitX=0.5;exitY=1;exitDx=0;exitDy=0;" parent="1" edge="1">
          <mxGeometry relative="1" as="geometry">
            <mxPoint x="690" y="479" as="sourcePoint" />
            <mxPoint x="690" y="479" as="targetPoint" />
          </mxGeometry>
        </mxCell>
        <mxCell id="QMCbMUR7JRhNykuZOvW2-107" value="2.0" style="text;html=1;strokeColor=none;fillColor=none;align=center;verticalAlign=middle;whiteSpace=wrap;rounded=0;" parent="1" vertex="1">
          <mxGeometry x="670" y="449" width="40" height="20" as="geometry" />
        </mxCell>
        <mxCell id="QMCbMUR7JRhNykuZOvW2-108" style="edgeStyle=orthogonalEdgeStyle;rounded=0;orthogonalLoop=1;jettySize=auto;html=1;exitX=0.5;exitY=1;exitDx=0;exitDy=0;" parent="1" edge="1">
          <mxGeometry relative="1" as="geometry">
            <mxPoint x="415" y="720" as="sourcePoint" />
            <mxPoint x="415" y="720" as="targetPoint" />
          </mxGeometry>
        </mxCell>
        <mxCell id="QMCbMUR7JRhNykuZOvW2-109" style="edgeStyle=orthogonalEdgeStyle;rounded=0;orthogonalLoop=1;jettySize=auto;html=1;exitX=0.5;exitY=1;exitDx=0;exitDy=0;" parent="1" edge="1">
          <mxGeometry relative="1" as="geometry">
            <mxPoint x="415" y="720" as="sourcePoint" />
            <mxPoint x="415" y="720" as="targetPoint" />
          </mxGeometry>
        </mxCell>
        <mxCell id="QMCbMUR7JRhNykuZOvW2-110" style="edgeStyle=orthogonalEdgeStyle;rounded=0;orthogonalLoop=1;jettySize=auto;html=1;exitX=0.09;exitY=0.02;exitDx=0;exitDy=0;exitPerimeter=0;" parent="1" source="QMCbMUR7JRhNykuZOvW2-134" edge="1">
          <mxGeometry relative="1" as="geometry">
            <Array as="points">
              <mxPoint x="49" y="720" />
              <mxPoint x="-20" y="720" />
              <mxPoint x="-20" y="290" />
              <mxPoint x="440" y="290" />
            </Array>
            <mxPoint x="440" y="407" as="targetPoint" />
          </mxGeometry>
        </mxCell>
        <mxCell id="QMCbMUR7JRhNykuZOvW2-111" value="Checks to see user requested profile " style="edgeLabel;html=1;align=center;verticalAlign=middle;resizable=0;points=[];" parent="QMCbMUR7JRhNykuZOvW2-110" vertex="1" connectable="0">
          <mxGeometry x="0.2181" y="2" relative="1" as="geometry">
            <mxPoint as="offset" />
          </mxGeometry>
        </mxCell>
        <mxCell id="QMCbMUR7JRhNykuZOvW2-124" style="edgeStyle=orthogonalEdgeStyle;rounded=0;orthogonalLoop=1;jettySize=auto;html=1;exitX=0.25;exitY=0;exitDx=0;exitDy=0;" parent="1" source="QMCbMUR7JRhNykuZOvW2-134" edge="1">
          <mxGeometry relative="1" as="geometry">
            <mxPoint x="400" y="590" as="targetPoint" />
            <Array as="points">
              <mxPoint x="60" y="720" />
              <mxPoint x="60" y="590" />
            </Array>
          </mxGeometry>
        </mxCell>
        <mxCell id="QMCbMUR7JRhNykuZOvW2-125" value="Reply" style="edgeLabel;html=1;align=center;verticalAlign=middle;resizable=0;points=[];" parent="QMCbMUR7JRhNykuZOvW2-124" vertex="1" connectable="0">
          <mxGeometry x="0.2326" relative="1" as="geometry">
            <mxPoint as="offset" />
          </mxGeometry>
        </mxCell>
        <mxCell id="QMCbMUR7JRhNykuZOvW2-126" style="edgeStyle=orthogonalEdgeStyle;rounded=0;orthogonalLoop=1;jettySize=auto;html=1;exitX=0;exitY=0.75;exitDx=0;exitDy=0;" parent="1" source="QMCbMUR7JRhNykuZOvW2-134" edge="1">
          <mxGeometry relative="1" as="geometry">
            <mxPoint x="410" y="1000" as="targetPoint" />
            <Array as="points">
              <mxPoint x="40" y="780" />
              <mxPoint x="20" y="780" />
              <mxPoint x="20" y="1080" />
              <mxPoint x="410" y="1080" />
            </Array>
          </mxGeometry>
        </mxCell>
        <mxCell id="QMCbMUR7JRhNykuZOvW2-127" value="Reply" style="edgeLabel;html=1;align=center;verticalAlign=middle;resizable=0;points=[];" parent="QMCbMUR7JRhNykuZOvW2-126" vertex="1" connectable="0">
          <mxGeometry x="-0.0733" y="2" relative="1" as="geometry">
            <mxPoint as="offset" />
          </mxGeometry>
        </mxCell>
        <mxCell id="QMCbMUR7JRhNykuZOvW2-128" style="edgeStyle=orthogonalEdgeStyle;rounded=0;orthogonalLoop=1;jettySize=auto;html=1;exitX=0;exitY=0.25;exitDx=0;exitDy=0;" parent="1" source="QMCbMUR7JRhNykuZOvW2-134" edge="1">
          <mxGeometry relative="1" as="geometry">
            <mxPoint x="480" y="409" as="targetPoint" />
            <Array as="points">
              <mxPoint x="40" y="760" />
              <mxPoint x="-80" y="760" />
              <mxPoint x="-80" y="230" />
              <mxPoint x="480" y="230" />
            </Array>
          </mxGeometry>
        </mxCell>
        <mxCell id="QMCbMUR7JRhNykuZOvW2-129" value="Displays Information" style="edgeLabel;html=1;align=center;verticalAlign=middle;resizable=0;points=[];" parent="QMCbMUR7JRhNykuZOvW2-128" vertex="1" connectable="0">
          <mxGeometry x="0.2614" relative="1" as="geometry">
            <mxPoint as="offset" />
          </mxGeometry>
        </mxCell>
        <mxCell id="QMCbMUR7JRhNykuZOvW2-130" style="edgeStyle=orthogonalEdgeStyle;rounded=0;orthogonalLoop=1;jettySize=auto;html=1;exitX=0.75;exitY=0;exitDx=0;exitDy=0;" parent="1" source="QMCbMUR7JRhNykuZOvW2-134" edge="1">
          <mxGeometry relative="1" as="geometry">
            <mxPoint x="400" y="610" as="targetPoint" />
            <Array as="points">
              <mxPoint x="90" y="720" />
              <mxPoint x="90" y="610" />
            </Array>
          </mxGeometry>
        </mxCell>
        <mxCell id="QMCbMUR7JRhNykuZOvW2-131" value="Reply" style="edgeLabel;html=1;align=center;verticalAlign=middle;resizable=0;points=[];" parent="QMCbMUR7JRhNykuZOvW2-130" vertex="1" connectable="0">
          <mxGeometry x="0.3418" y="-1" relative="1" as="geometry">
            <mxPoint as="offset" />
          </mxGeometry>
        </mxCell>
        <mxCell id="QMCbMUR7JRhNykuZOvW2-132" style="edgeStyle=orthogonalEdgeStyle;rounded=0;orthogonalLoop=1;jettySize=auto;html=1;exitX=0.75;exitY=1;exitDx=0;exitDy=0;" parent="1" source="QMCbMUR7JRhNykuZOvW2-134" edge="1">
          <mxGeometry relative="1" as="geometry">
            <mxPoint x="429" y="900" as="targetPoint" />
            <Array as="points">
              <mxPoint x="110" y="820" />
              <mxPoint x="110" y="900" />
            </Array>
          </mxGeometry>
        </mxCell>
        <mxCell id="QMCbMUR7JRhNykuZOvW2-133" value="Stores the deleted profile " style="edgeLabel;html=1;align=center;verticalAlign=middle;resizable=0;points=[];" parent="QMCbMUR7JRhNykuZOvW2-132" vertex="1" connectable="0">
          <mxGeometry x="0.0644" y="-2" relative="1" as="geometry">
            <mxPoint as="offset" />
          </mxGeometry>
        </mxCell>
        <mxCell id="QMCbMUR7JRhNykuZOvW2-169" style="edgeStyle=orthogonalEdgeStyle;rounded=0;orthogonalLoop=1;jettySize=auto;html=1;exitX=0.5;exitY=1;exitDx=0;exitDy=0;entryX=0;entryY=0.5;entryDx=0;entryDy=0;" parent="1" source="QMCbMUR7JRhNykuZOvW2-134" target="QMCbMUR7JRhNykuZOvW2-158" edge="1">
          <mxGeometry relative="1" as="geometry" />
        </mxCell>
        <mxCell id="QMCbMUR7JRhNykuZOvW2-171" value="Checks for worker Information" style="edgeLabel;html=1;align=center;verticalAlign=middle;resizable=0;points=[];" parent="QMCbMUR7JRhNykuZOvW2-169" vertex="1" connectable="0">
          <mxGeometry x="0.075" relative="1" as="geometry">
            <mxPoint as="offset" />
          </mxGeometry>
        </mxCell>
        <mxCell id="QMCbMUR7JRhNykuZOvW2-174" style="edgeStyle=orthogonalEdgeStyle;rounded=0;orthogonalLoop=1;jettySize=auto;html=1;exitX=1;exitY=0.5;exitDx=0;exitDy=0;entryX=0.142;entryY=1.033;entryDx=0;entryDy=0;entryPerimeter=0;" parent="1" source="QMCbMUR7JRhNykuZOvW2-134" target="QMCbMUR7JRhNykuZOvW2-93" edge="1">
          <mxGeometry relative="1" as="geometry" />
        </mxCell>
        <mxCell id="QMCbMUR7JRhNykuZOvW2-177" value="Star Rating Worker Profile on basis of Experience" style="edgeLabel;html=1;align=center;verticalAlign=middle;resizable=0;points=[];" parent="QMCbMUR7JRhNykuZOvW2-174" vertex="1" connectable="0">
          <mxGeometry x="-0.8091" relative="1" as="geometry">
            <mxPoint x="108" as="offset" />
          </mxGeometry>
        </mxCell>
        <mxCell id="QMCbMUR7JRhNykuZOvW2-183" style="edgeStyle=orthogonalEdgeStyle;rounded=0;orthogonalLoop=1;jettySize=auto;html=1;entryX=0.575;entryY=0.983;entryDx=0;entryDy=0;entryPerimeter=0;" parent="1" source="QMCbMUR7JRhNykuZOvW2-134" target="QMCbMUR7JRhNykuZOvW2-93" edge="1">
          <mxGeometry relative="1" as="geometry">
            <Array as="points">
              <mxPoint x="474" y="810" />
            </Array>
          </mxGeometry>
        </mxCell>
        <mxCell id="QMCbMUR7JRhNykuZOvW2-184" value="Sends email to the Worker mail box" style="edgeLabel;html=1;align=center;verticalAlign=middle;resizable=0;points=[];" parent="QMCbMUR7JRhNykuZOvW2-183" vertex="1" connectable="0">
          <mxGeometry x="-0.443" y="-1" relative="1" as="geometry">
            <mxPoint as="offset" />
          </mxGeometry>
        </mxCell>
        <mxCell id="QMCbMUR7JRhNykuZOvW2-134" value="Profile" style="rounded=1;whiteSpace=wrap;html=1;" parent="1" vertex="1">
          <mxGeometry x="40" y="720" width="100" height="100" as="geometry" />
        </mxCell>
        <mxCell id="QMCbMUR7JRhNykuZOvW2-135" value="" style="endArrow=none;html=1;exitX=0;exitY=0.25;exitDx=0;exitDy=0;entryX=1;entryY=0.25;entryDx=0;entryDy=0;" parent="1" source="QMCbMUR7JRhNykuZOvW2-134" target="QMCbMUR7JRhNykuZOvW2-134" edge="1">
          <mxGeometry width="50" height="50" relative="1" as="geometry">
            <mxPoint x="260" y="1110" as="sourcePoint" />
            <mxPoint x="140" y="1060" as="targetPoint" />
          </mxGeometry>
        </mxCell>
        <mxCell id="QMCbMUR7JRhNykuZOvW2-136" style="edgeStyle=orthogonalEdgeStyle;rounded=0;orthogonalLoop=1;jettySize=auto;html=1;exitX=0.5;exitY=1;exitDx=0;exitDy=0;" parent="1" source="QMCbMUR7JRhNykuZOvW2-134" target="QMCbMUR7JRhNykuZOvW2-134" edge="1">
          <mxGeometry relative="1" as="geometry" />
        </mxCell>
        <mxCell id="QMCbMUR7JRhNykuZOvW2-137" style="edgeStyle=orthogonalEdgeStyle;rounded=0;orthogonalLoop=1;jettySize=auto;html=1;exitX=0.5;exitY=1;exitDx=0;exitDy=0;" parent="1" edge="1">
          <mxGeometry relative="1" as="geometry">
            <mxPoint x="450" y="628" as="sourcePoint" />
            <mxPoint x="450" y="628" as="targetPoint" />
          </mxGeometry>
        </mxCell>
        <mxCell id="QMCbMUR7JRhNykuZOvW2-138" value="3.0" style="text;html=1;strokeColor=none;fillColor=none;align=center;verticalAlign=middle;whiteSpace=wrap;rounded=0;" parent="1" vertex="1">
          <mxGeometry x="70" y="730" width="40" height="10.5" as="geometry" />
        </mxCell>
        <mxCell id="QMCbMUR7JRhNykuZOvW2-139" style="edgeStyle=orthogonalEdgeStyle;rounded=0;orthogonalLoop=1;jettySize=auto;html=1;" parent="1" source="QMCbMUR7JRhNykuZOvW2-143" edge="1">
          <mxGeometry relative="1" as="geometry">
            <mxPoint x="520" y="612" as="targetPoint" />
            <Array as="points">
              <mxPoint x="520" y="710" />
              <mxPoint x="520" y="612" />
            </Array>
          </mxGeometry>
        </mxCell>
        <mxCell id="QMCbMUR7JRhNykuZOvW2-140" value="Reply" style="edgeLabel;html=1;align=center;verticalAlign=middle;resizable=0;points=[];" parent="QMCbMUR7JRhNykuZOvW2-139" vertex="1" connectable="0">
          <mxGeometry x="-0.2696" y="-1" relative="1" as="geometry">
            <mxPoint as="offset" />
          </mxGeometry>
        </mxCell>
        <mxCell id="QMCbMUR7JRhNykuZOvW2-141" style="edgeStyle=orthogonalEdgeStyle;rounded=0;orthogonalLoop=1;jettySize=auto;html=1;exitX=1;exitY=0.75;exitDx=0;exitDy=0;entryX=0.67;entryY=1.033;entryDx=0;entryDy=0;entryPerimeter=0;" parent="1" source="QMCbMUR7JRhNykuZOvW2-143" target="QMCbMUR7JRhNykuZOvW2-155" edge="1">
          <mxGeometry relative="1" as="geometry">
            <mxPoint x="600" y="1005" as="targetPoint" />
            <Array as="points">
              <mxPoint x="810" y="720" />
              <mxPoint x="830" y="720" />
              <mxPoint x="830" y="1020" />
              <mxPoint x="442" y="1020" />
            </Array>
          </mxGeometry>
        </mxCell>
        <mxCell id="QMCbMUR7JRhNykuZOvW2-142" value="Checks if the skill set is available or not" style="edgeLabel;html=1;align=center;verticalAlign=middle;resizable=0;points=[];" parent="QMCbMUR7JRhNykuZOvW2-141" vertex="1" connectable="0">
          <mxGeometry x="0.2056" relative="1" as="geometry">
            <mxPoint x="-17" as="offset" />
          </mxGeometry>
        </mxCell>
        <mxCell id="QMCbMUR7JRhNykuZOvW2-143" value="Search" style="rounded=1;whiteSpace=wrap;html=1;" parent="1" vertex="1">
          <mxGeometry x="710" y="659.5" width="100" height="100" as="geometry" />
        </mxCell>
        <mxCell id="QMCbMUR7JRhNykuZOvW2-144" value="" style="endArrow=none;html=1;exitX=0;exitY=0.25;exitDx=0;exitDy=0;entryX=1;entryY=0.25;entryDx=0;entryDy=0;" parent="1" source="QMCbMUR7JRhNykuZOvW2-143" target="QMCbMUR7JRhNykuZOvW2-143" edge="1">
          <mxGeometry width="50" height="50" relative="1" as="geometry">
            <mxPoint x="920" y="1079.5" as="sourcePoint" />
            <mxPoint x="800" y="1029.5" as="targetPoint" />
          </mxGeometry>
        </mxCell>
        <mxCell id="QMCbMUR7JRhNykuZOvW2-145" style="edgeStyle=orthogonalEdgeStyle;rounded=0;orthogonalLoop=1;jettySize=auto;html=1;exitX=0.5;exitY=1;exitDx=0;exitDy=0;" parent="1" source="QMCbMUR7JRhNykuZOvW2-143" target="QMCbMUR7JRhNykuZOvW2-143" edge="1">
          <mxGeometry relative="1" as="geometry" />
        </mxCell>
        <mxCell id="QMCbMUR7JRhNykuZOvW2-146" value="4.0" style="text;html=1;strokeColor=none;fillColor=none;align=center;verticalAlign=middle;whiteSpace=wrap;rounded=0;" parent="1" vertex="1">
          <mxGeometry x="740" y="669.5" width="40" height="20" as="geometry" />
        </mxCell>
        <mxCell id="QMCbMUR7JRhNykuZOvW2-151" style="edgeStyle=orthogonalEdgeStyle;rounded=0;orthogonalLoop=1;jettySize=auto;html=1;exitX=0.5;exitY=1;exitDx=0;exitDy=0;entryX=1.01;entryY=0.395;entryDx=0;entryDy=0;entryPerimeter=0;" parent="1" source="QMCbMUR7JRhNykuZOvW2-155" target="QMCbMUR7JRhNykuZOvW2-143" edge="1">
          <mxGeometry relative="1" as="geometry">
            <Array as="points">
              <mxPoint x="430" y="1000" />
              <mxPoint x="430" y="1030" />
              <mxPoint x="840" y="1030" />
              <mxPoint x="840" y="699" />
            </Array>
          </mxGeometry>
        </mxCell>
        <mxCell id="QMCbMUR7JRhNykuZOvW2-152" value="Response" style="edgeLabel;html=1;align=center;verticalAlign=middle;resizable=0;points=[];" parent="QMCbMUR7JRhNykuZOvW2-151" vertex="1" connectable="0">
          <mxGeometry x="-0.4957" y="-1" relative="1" as="geometry">
            <mxPoint as="offset" />
          </mxGeometry>
        </mxCell>
        <mxCell id="QMCbMUR7JRhNykuZOvW2-153" style="edgeStyle=orthogonalEdgeStyle;rounded=0;orthogonalLoop=1;jettySize=auto;html=1;exitX=0.5;exitY=1;exitDx=0;exitDy=0;entryX=0;entryY=0.5;entryDx=0;entryDy=0;" parent="1" source="QMCbMUR7JRhNykuZOvW2-155" target="QMCbMUR7JRhNykuZOvW2-134" edge="1">
          <mxGeometry relative="1" as="geometry">
            <Array as="points">
              <mxPoint x="420" y="1000" />
              <mxPoint x="420" y="1090" />
              <mxPoint x="10" y="1090" />
              <mxPoint x="10" y="770" />
            </Array>
          </mxGeometry>
        </mxCell>
        <mxCell id="QMCbMUR7JRhNykuZOvW2-154" value="Gets the infromation of the user" style="edgeLabel;html=1;align=center;verticalAlign=middle;resizable=0;points=[];" parent="QMCbMUR7JRhNykuZOvW2-153" vertex="1" connectable="0">
          <mxGeometry x="-0.186" relative="1" as="geometry">
            <mxPoint as="offset" />
          </mxGeometry>
        </mxCell>
        <mxCell id="QMCbMUR7JRhNykuZOvW2-155" value="&amp;nbsp;&amp;nbsp;&amp;nbsp;&amp;nbsp;&amp;nbsp;&amp;nbsp;&amp;nbsp;&amp;nbsp; Skill sets" style="html=1;dashed=0;whitespace=wrap;shape=mxgraph.dfd.dataStoreID;align=left;spacingLeft=3;points=[[0,0],[0.5,0],[1,0],[0,0.5],[1,0.5],[0,1],[0.5,1],[1,1]];" parent="1" vertex="1">
          <mxGeometry x="375" y="970" width="100" height="30" as="geometry" />
        </mxCell>
        <mxCell id="QMCbMUR7JRhNykuZOvW2-170" style="edgeStyle=orthogonalEdgeStyle;rounded=0;orthogonalLoop=1;jettySize=auto;html=1;exitX=0;exitY=1;exitDx=0;exitDy=0;entryX=0.33;entryY=1.03;entryDx=0;entryDy=0;entryPerimeter=0;" parent="1" source="QMCbMUR7JRhNykuZOvW2-158" target="QMCbMUR7JRhNykuZOvW2-134" edge="1">
          <mxGeometry relative="1" as="geometry">
            <Array as="points">
              <mxPoint x="73" y="950" />
            </Array>
          </mxGeometry>
        </mxCell>
        <mxCell id="QMCbMUR7JRhNykuZOvW2-172" value="Gets worker infromation" style="edgeLabel;html=1;align=center;verticalAlign=middle;resizable=0;points=[];" parent="QMCbMUR7JRhNykuZOvW2-170" vertex="1" connectable="0">
          <mxGeometry x="-0.2214" y="-1" relative="1" as="geometry">
            <mxPoint as="offset" />
          </mxGeometry>
        </mxCell>
        <mxCell id="QMCbMUR7JRhNykuZOvW2-158" value="&amp;nbsp;&amp;nbsp;&amp;nbsp;&amp;nbsp;&amp;nbsp;&amp;nbsp;&amp;nbsp;&amp;nbsp; Experices" style="html=1;dashed=0;whitespace=wrap;shape=mxgraph.dfd.dataStoreID;align=left;spacingLeft=3;points=[[0,0],[0.5,0],[1,0],[0,0.5],[1,0.5],[0,1],[0.5,1],[1,1]];" parent="1" vertex="1">
          <mxGeometry x="375" y="920" width="100" height="30" as="geometry" />
        </mxCell>
        <mxCell id="QMCbMUR7JRhNykuZOvW2-159" style="edgeStyle=orthogonalEdgeStyle;rounded=0;orthogonalLoop=1;jettySize=auto;html=1;" parent="1" source="QMCbMUR7JRhNykuZOvW2-161" edge="1">
          <mxGeometry relative="1" as="geometry">
            <mxPoint x="120" y="820" as="targetPoint" />
            <Array as="points">
              <mxPoint x="120" y="890" />
            </Array>
          </mxGeometry>
        </mxCell>
        <mxCell id="QMCbMUR7JRhNykuZOvW2-160" value="Reply" style="edgeLabel;html=1;align=center;verticalAlign=middle;resizable=0;points=[];" parent="QMCbMUR7JRhNykuZOvW2-159" vertex="1" connectable="0">
          <mxGeometry x="-0.3842" relative="1" as="geometry">
            <mxPoint x="7" as="offset" />
          </mxGeometry>
        </mxCell>
        <mxCell id="QMCbMUR7JRhNykuZOvW2-161" value="&amp;nbsp;&amp;nbsp;&amp;nbsp;&amp;nbsp;&amp;nbsp;&amp;nbsp;&amp;nbsp;&amp;nbsp; Application User" style="html=1;dashed=0;whitespace=wrap;shape=mxgraph.dfd.dataStoreID;align=left;spacingLeft=3;points=[[0,0],[0.5,0],[1,0],[0,0.5],[1,0.5],[0,1],[0.5,1],[1,1]];" parent="1" vertex="1">
          <mxGeometry x="430" y="870" width="120" height="30" as="geometry" />
        </mxCell>
        <mxCell id="QMCbMUR7JRhNykuZOvW2-162" style="edgeStyle=orthogonalEdgeStyle;rounded=0;orthogonalLoop=1;jettySize=auto;html=1;exitX=0.183;exitY=1.067;exitDx=0;exitDy=0;entryX=0;entryY=0.36;entryDx=0;entryDy=0;entryPerimeter=0;exitPerimeter=0;" parent="1" source="QMCbMUR7JRhNykuZOvW2-164" target="QMCbMUR7JRhNykuZOvW2-74" edge="1">
          <mxGeometry relative="1" as="geometry">
            <Array as="points">
              <mxPoint x="52" y="390" />
              <mxPoint x="50" y="390" />
              <mxPoint x="50" y="476" />
            </Array>
          </mxGeometry>
        </mxCell>
        <mxCell id="QMCbMUR7JRhNykuZOvW2-163" value="Response" style="edgeLabel;html=1;align=center;verticalAlign=middle;resizable=0;points=[];" parent="QMCbMUR7JRhNykuZOvW2-162" vertex="1" connectable="0">
          <mxGeometry x="0.0762" y="3" relative="1" as="geometry">
            <mxPoint x="37" as="offset" />
          </mxGeometry>
        </mxCell>
        <mxCell id="QMCbMUR7JRhNykuZOvW2-164" value="&amp;nbsp; &amp;nbsp; &amp;nbsp; &amp;nbsp; &amp;nbsp; UserRoles" style="html=1;dashed=0;whitespace=wrap;shape=mxgraph.dfd.dataStoreID;align=left;spacingLeft=3;points=[[0,0],[0.5,0],[1,0],[0,0.5],[1,0.5],[0,1],[0.5,1],[1,1]];" parent="1" vertex="1">
          <mxGeometry x="30" y="360" width="120" height="30" as="geometry" />
        </mxCell>
        <mxCell id="QMCbMUR7JRhNykuZOvW2-192" style="edgeStyle=orthogonalEdgeStyle;rounded=0;orthogonalLoop=1;jettySize=auto;html=1;exitX=0;exitY=0.5;exitDx=0;exitDy=0;entryX=1.05;entryY=0.36;entryDx=0;entryDy=0;entryPerimeter=0;" parent="1" source="QMCbMUR7JRhNykuZOvW2-188" target="QMCbMUR7JRhNykuZOvW2-103" edge="1">
          <mxGeometry relative="1" as="geometry" />
        </mxCell>
        <mxCell id="QMCbMUR7JRhNykuZOvW2-194" value="Response" style="edgeLabel;html=1;align=center;verticalAlign=middle;resizable=0;points=[];" parent="QMCbMUR7JRhNykuZOvW2-192" vertex="1" connectable="0">
          <mxGeometry x="0.1586" relative="1" as="geometry">
            <mxPoint as="offset" />
          </mxGeometry>
        </mxCell>
        <mxCell id="QMCbMUR7JRhNykuZOvW2-188" value="&amp;nbsp; &amp;nbsp; &amp;nbsp; &amp;nbsp; &amp;nbsp; UserRoles" style="html=1;dashed=0;whitespace=wrap;shape=mxgraph.dfd.dataStoreID;align=left;spacingLeft=3;points=[[0,0],[0.5,0],[1,0],[0,0.5],[1,0.5],[0,1],[0.5,1],[1,1]];" parent="1" vertex="1">
          <mxGeometry x="890" y="460" width="120" height="30" as="geometry" />
        </mxCell>
      </root>
    </mxGraphModel>
  </diagram>
</mxfile>
